<?xml version="1.0" encoding="UTF-8"?>
<svg width="30px" height="30px" viewBox="0 0 30 30" version="1.1" xmlns="http://www.w3.org/2000/svg" xmlns:xlink="http://www.w3.org/1999/xlink">
    <!-- Generator: Sketch 62 (91390) - https://sketch.com -->
    <title>Call</title>
    <desc>Created with Sketch.</desc>
    <g id="Call" stroke="none" stroke-width="1" fill="none" fill-rule="evenodd">
        <path d="M29.1442966,21.1991093 L22.5817175,18.3865744 C22.0058077,18.1411346 21.3369991,18.3059482 20.9410727,18.7908763 L18.0347877,22.3417016 C13.4736438,20.1911656 9.80297122,16.5204918 7.65243601,11.9593462 L11.2032601,9.05306016 C11.6892396,8.6577993 11.854242,7.98822402 11.6075618,7.4124148 L8.79502791,0.84983339 C8.52319713,0.226614362 7.84669132,-0.115328697 7.18368036,0.0353701609 L1.08985692,1.44163761 C0.451769918,1.5889854 0,2.1572833 0,2.81216242 C0,17.8416457 12.1817875,30 27.1878277,30 C27.8429257,30.0004197 28.411541,29.5484433 28.558938,28.9101424 L29.9652049,22.8163168 C30.1149239,22.1501227 29.7704348,21.4714715 29.1442966,21.1991093 L29.1442966,21.1991093 Z" id="Path" fill="#5C4C3C" fill-rule="nonzero"></path>
    </g>
</svg>