<?xml version="1.0" encoding="UTF-8"?>
<svg width="30px" height="30px" viewBox="0 0 30 30" version="1.1" xmlns="http://www.w3.org/2000/svg" xmlns:xlink="http://www.w3.org/1999/xlink">
    <!-- Generator: Sketch 62 (91390) - https://sketch.com -->
    <title>Investing in Startups Default</title>
    <desc>Created with Sketch.</desc>
    <g id="Investing-in-Startups-Default" stroke="none" stroke-width="1" fill="none" fill-rule="evenodd">
        <path d="M0,23.7480469 L0,26.25 C0,28.3183594 5.0390625,30 11.25,30 C17.4609375,30 22.5,28.3183594 22.5,26.25 L22.5,23.7480469 C20.0800781,25.453125 15.65625,26.25 11.25,26.25 C6.84375,26.25 2.41992188,25.453125 0,23.7480469 Z M18.75,7.5 C24.9609375,7.5 30,5.81835938 30,3.75 C30,1.68164063 24.9609375,5.32907052e-15 18.75,5.32907052e-15 C12.5390625,5.32907052e-15 7.5,1.68164063 7.5,3.75 C7.5,5.81835938 12.5390625,7.5 18.75,7.5 Z M0,17.6015625 L0,20.625 C0,22.6933594 5.0390625,24.375 11.25,24.375 C17.4609375,24.375 22.5,22.6933594 22.5,20.625 L22.5,17.6015625 C20.0800781,19.59375 15.6503906,20.625 11.25,20.625 C6.84960937,20.625 2.41992188,19.59375 0,17.6015625 Z M24.375,18.2460938 C27.7324219,17.5957031 30,16.3886719 30,15 L30,12.4980469 C28.640625,13.4589844 26.6425781,14.1152344 24.375,14.5195313 L24.375,18.2460938 Z M11.25,9.375 C5.0390625,9.375 0,11.4726563 0,14.0625 C0,16.6523438 5.0390625,18.75 11.25,18.75 C17.4609375,18.75 22.5,16.6523438 22.5,14.0625 C22.5,11.4726563 17.4609375,9.375 11.25,9.375 Z M24.0996094,12.6738281 C27.6152344,12.0410156 30,10.7988281 30,9.375 L30,6.87304688 C27.9199219,8.34375 24.3457031,9.13476563 20.5839844,9.32226563 C22.3125,10.1601563 23.5839844,11.2851563 24.0996094,12.6738281 Z" id="Shape" fill="#D9E832" fill-rule="nonzero"></path>
    </g>
</svg>