<?xml version="1.0" encoding="UTF-8"?>
<svg width="23px" height="30px" viewBox="0 0 23 30" version="1.1" xmlns="http://www.w3.org/2000/svg" xmlns:xlink="http://www.w3.org/1999/xlink">
    <!-- Generator: Sketch 62 (91390) - https://sketch.com -->
    <title>Location</title>
    <desc>Created with Sketch.</desc>
    <g id="Location" stroke="none" stroke-width="1" fill="none" fill-rule="evenodd">
        <path d="M10.0938281,29.3947266 C1.58027344,17.0525977 0,15.785918 0,11.25 C0,5.03677734 5.03677734,3.01980663e-14 11.25,3.01980663e-14 C17.4632227,3.01980663e-14 22.5,5.03677734 22.5,11.25 C22.5,15.785918 20.9197266,17.0525977 12.4061719,29.3947266 C11.8474805,30.2017969 10.6524609,30.2017383 10.0938281,29.3947266 Z M11.25,15.9375 C13.8388477,15.9375 15.9375,13.8388477 15.9375,11.25 C15.9375,8.66115234 13.8388477,6.5625 11.25,6.5625 C8.66115234,6.5625 6.5625,8.66115234 6.5625,11.25 C6.5625,13.8388477 8.66115234,15.9375 11.25,15.9375 Z" fill="#5C4C3C" fill-rule="nonzero"></path>
    </g>
</svg>