<?xml version="1.0" encoding="UTF-8"?>
<svg width="30px" height="19px" viewBox="0 0 30 19" version="1.1" xmlns="http://www.w3.org/2000/svg" xmlns:xlink="http://www.w3.org/1999/xlink">
    <!-- Generator: Sketch 62 (91390) - https://sketch.com -->
    <title>M&amp;A Advisory Default</title>
    <desc>Created with Sketch.</desc>
    <g id="M&amp;A-Advisory-Default" stroke="none" stroke-width="1" fill="none" fill-rule="evenodd">
        <path d="M20.3765625,1.77635684e-15 L16.35,1.77635684e-15 C15.975,1.77635684e-15 15.6140625,0.140625 15.3375,0.39375 L10.7296875,4.6125 C10.725,4.6171875 10.7203125,4.6265625 10.715625,4.63125 C9.9375,5.3625 9.9515625,6.5296875 10.6171875,7.25625 C11.2125,7.9078125 12.4640625,8.08125 13.246875,7.3828125 C13.2515625,7.378125 13.2609375,7.378125 13.265625,7.3734375 L17.0109375,3.9421875 C17.315625,3.665625 17.79375,3.684375 18.0703125,3.9890625 C18.3515625,4.29375 18.328125,4.7671875 18.0234375,5.0484375 L16.8,6.16875 L23.625,11.709375 C23.7609375,11.821875 23.8828125,11.94375 23.9953125,12.0703125 L23.9953125,3 L21.4359375,0.440625 C21.159375,0.159375 20.775,1.77635684e-15 20.3765625,1.77635684e-15 Z M25.5,3.009375 L25.5,13.5046875 C25.5,14.334375 26.1703125,15.0046875 27,15.0046875 L30,15.0046875 L30,3.009375 L25.5,3.009375 Z M27.75,13.5046875 C27.3375,13.5046875 27,13.1671875 27,12.7546875 C27,12.3421875 27.3375,12.0046875 27.75,12.0046875 C28.1625,12.0046875 28.5,12.3421875 28.5,12.7546875 C28.5,13.1671875 28.1625,13.5046875 27.75,13.5046875 Z M0,15 L3,15 C3.8296875,15 4.5,14.3296875 4.5,13.5 L4.5,3.009375 L0,3.009375 L0,15 Z M2.25,12.0046875 C2.6625,12.0046875 3,12.3421875 3,12.7546875 C3,13.1671875 2.6625,13.5046875 2.25,13.5046875 C1.8375,13.5046875 1.5,13.1671875 1.5,12.7546875 C1.5,12.3375 1.8375,12.0046875 2.25,12.0046875 Z M22.6828125,12.8765625 L15.684375,7.1953125 L14.278125,8.484375 C12.8859375,9.7546875 10.753125,9.6328125 9.5109375,8.278125 C8.25,6.9 8.3484375,4.7671875 9.7171875,3.5109375 L13.5515625,1.77635684e-15 L9.6234375,1.77635684e-15 C9.225,1.77635684e-15 8.8453125,0.159375 8.5640625,0.440625 L6,3 L6,13.4953125 L6.8578125,13.4953125 L11.1,17.334375 C12.384375,18.3796875 14.2734375,18.1828125 15.31875,16.8984375 L15.328125,16.8890625 L16.1671875,17.615625 C16.9125,18.225 18.0140625,18.1078125 18.61875,17.3625 L20.090625,15.553125 L20.34375,15.759375 C20.9859375,16.2796875 21.9328125,16.1859375 22.453125,15.5390625 L22.8984375,14.990625 C23.4234375,14.34375 23.325,13.4015625 22.6828125,12.8765625 L22.6828125,12.8765625 Z" id="Shape" fill="#D9E832" fill-rule="nonzero"></path>
    </g>
</svg>