<?xml version="1.0" encoding="UTF-8"?>
<svg width="30px" height="30px" viewBox="0 0 30 30" version="1.1" xmlns="http://www.w3.org/2000/svg" xmlns:xlink="http://www.w3.org/1999/xlink">
    <!-- Generator: Sketch 62 (91390) - https://sketch.com -->
    <title>Startup Advisory Active</title>
    <desc>Created with Sketch.</desc>
    <g id="Startup-Advisory-Active" stroke="none" stroke-width="1" fill="none" fill-rule="evenodd">
        <path d="M29.5921875,25.9371094 L23.7498047,20.0958984 C23.4861328,19.8322266 23.1287109,19.6857422 22.7537109,19.6857422 L21.7986328,19.6857422 C23.4158203,17.6173828 24.3767578,15.0164063 24.3767578,12.1863281 C24.3767578,5.45449219 18.9210937,-5.32907052e-15 12.1886719,-5.32907052e-15 C5.45625,-5.32907052e-15 -1.66977543e-13,5.45449219 -1.66977543e-13,12.1863281 C-1.66977543e-13,18.9181641 5.45566406,24.3726562 12.1886719,24.3726562 C15.01875,24.3726562 17.6208984,23.4117188 19.6892578,21.7945312 L19.6892578,22.7496094 C19.6892578,23.1246094 19.8357422,23.4820313 20.0994141,23.7457031 L25.9417969,29.5869141 C26.4925781,30.1376953 27.3832031,30.1376953 27.928125,29.5869141 L29.5863281,27.9287109 C30.1371094,27.3779297 30.1371094,26.4878906 29.5921875,25.9371094 Z M12.1886719,20.6226563 C7.528125,20.6226563 3.75117187,16.8527344 3.75117187,12.1863281 C3.75117187,7.52636719 7.52167969,3.75 12.1886719,3.75 C16.8492187,3.75 20.6261719,7.51992188 20.6261719,12.1863281 C20.6261719,16.8462891 16.8556641,20.6226563 12.1886719,20.6226563 Z M13.7771484,11.6847656 L11.1398437,10.89375 C10.8375,10.8029297 10.6259766,10.4964844 10.6259766,10.1478516 C10.6259766,9.721875 10.9365234,9.375 11.3173828,9.375 L12.9644531,9.375 C13.2316406,9.375 13.4894531,9.45058594 13.715625,9.59296875 C13.9054687,9.71191406 14.146875,9.70488281 14.3091797,9.55019531 L14.9976562,8.89335938 C15.2044922,8.69589844 15.1927734,8.35371094 14.9642578,8.18203125 C14.4310547,7.78183594 13.7876953,7.55097656 13.1261719,7.51699219 L13.1261719,6.5625 C13.1261719,6.30351562 12.9164062,6.09375 12.6574219,6.09375 L11.7199219,6.09375 C11.4609375,6.09375 11.2511719,6.30351562 11.2511719,6.5625 L11.2511719,7.50703125 C9.86660156,7.54394531 8.75039062,8.71113281 8.75039062,10.1478516 C8.75039062,11.3179687 9.51152344,12.3632812 10.6007812,12.6902344 L13.2380859,13.48125 C13.5404297,13.5720703 13.7519531,13.8785156 13.7519531,14.2271484 C13.7519531,14.653125 13.4414062,15 13.0605469,15 L11.4140625,15 C11.146875,15 10.8890625,14.9244141 10.6628906,14.7820312 C10.4730469,14.6630859 10.2316406,14.6701172 10.0693359,14.8248047 L9.38085937,15.4816406 C9.17402344,15.6791016 9.18574219,16.0212891 9.41425781,16.1929687 C9.94746094,16.5931641 10.5908203,16.8240234 11.2523437,16.8580078 L11.2523437,17.8125 C11.2523437,18.0714844 11.4621094,18.28125 11.7210937,18.28125 L12.6585937,18.28125 C12.9175781,18.28125 13.1273437,18.0714844 13.1273437,17.8125 L13.1273437,16.8679687 C14.5119141,16.8310547 15.628125,15.6644531 15.628125,14.2271484 C15.628125,13.0570312 14.8669922,12.0117187 13.7771484,11.6847656 L13.7771484,11.6847656 Z" id="Shape" fill="#5C4C3C" fill-rule="nonzero"></path>
    </g>
</svg>