<?xml version="1.0" encoding="UTF-8"?>
<svg width="30px" height="30px" viewBox="0 0 30 30" version="1.1" xmlns="http://www.w3.org/2000/svg" xmlns:xlink="http://www.w3.org/1999/xlink">
    <!-- Generator: Sketch 62 (91390) - https://sketch.com -->
    <title>Submit-Default</title>
    <desc>Created with Sketch.</desc>
    <g id="Submit-Default" stroke="none" stroke-width="1" fill="none" fill-rule="evenodd">
        <g id="arrow-circle-right-solid" fill="#FFFFFF" fill-rule="nonzero">
            <path d="M15,0 C23.2862903,0 30,6.71370968 30,15 C30,23.2862903 23.2862903,30 15,30 C6.71370968,30 0,23.2862903 0,15 C0,6.71370968 6.71370968,0 15,0 Z M13.2520161,8.68548387 L17.8185484,13.0645161 L6.77419355,13.0645161 C5.96975806,13.0645161 5.32258065,13.7116935 5.32258065,14.516129 L5.32258065,15.483871 C5.32258065,16.2883065 5.96975806,16.9354839 6.77419355,16.9354839 L17.8185484,16.9354839 L13.2520161,21.3145161 C12.6653226,21.8770161 12.6532258,22.8145161 13.2278226,23.3891129 L13.8931452,24.0483871 C14.4616935,24.6169355 15.3810484,24.6169355 15.9435484,24.0483871 L23.9697581,16.0282258 C24.5383065,15.4596774 24.5383065,14.5403226 23.9697581,13.9778226 L15.9435484,5.94556452 C15.375,5.37701613 14.4556452,5.37701613 13.8931452,5.94556452 L13.2278226,6.60483871 C12.6532258,7.18548387 12.6653226,8.12298387 13.2520161,8.68548387 Z" id="Shape"></path>
        </g>
    </g>
</svg>