<?xml version="1.0" encoding="UTF-8"?>
<svg width="34px" height="34px" viewBox="0 0 34 34" version="1.1" xmlns="http://www.w3.org/2000/svg" xmlns:xlink="http://www.w3.org/1999/xlink">
    <!-- Generator: Sketch 62 (91390) - https://sketch.com -->
    <title>Transaction tax Active</title>
    <desc>Created with Sketch.</desc>
    <g id="Transaction-tax-Active" stroke="none" stroke-width="1" fill="none" fill-rule="evenodd">
        <path d="M0.399195657,9.52102418 L0.399195657,8.16116845 C0.399195657,7.03461297 1.27248947,6.12138485 2.34978212,6.12138485 L23.5968722,6.12138485 L23.5968722,2.04181766 C23.5968722,0.225815327 25.7017988,-0.681463418 26.9267671,0.599435689 L33.428722,7.39871434 C34.190426,8.19533482 34.190426,9.4868578 33.428722,10.2833933 L26.9267671,17.0826719 C25.7064315,18.3585566 23.5968722,17.4639415 23.5968722,15.640375 L23.5968722,11.5608078 L2.34978212,11.5608078 C1.27248947,11.5608078 0.399195657,10.6475797 0.399195657,9.52102418 Z M31.6086618,22.4396536 L10.6247603,22.4396536 L10.6247603,18.3600864 C10.6247603,16.5485886 8.47806066,15.6335757 7.22392392,16.9177044 L0.583448749,23.7169831 C-0.194482916,24.5136036 -0.194482916,25.8051266 0.583448749,26.6016621 L7.22392392,33.4009407 C8.47133718,34.6781002 10.6247603,33.7805954 10.6247603,31.9586437 L10.6247603,27.8790765 L31.6086618,27.8790765 C32.7089055,27.8790765 33.6008043,26.9658484 33.6008043,25.8392929 L33.6008043,24.4794372 C33.6008043,23.3528817 32.7089055,22.4396536 31.6086618,22.4396536 Z" id="Shape" fill="#5C4C3C" fill-rule="nonzero"></path>
    </g>
</svg>